<svg id="diagram-1789812988840-l44a9n" width="100%" xmlns="http://www.w3.org/2000/svg" xmlns:xlink="http://www.w3.org/1999/xlink" class="classDiagram" style="max-width: 392.2187805175781px;" viewBox="4 4 392.2187805175781 899" role="graphics-document document" aria-roledescription="classDiagram"><style>#diagram-1789812988840-l44a9n{font-family:"Recursive Variable",arial,sans-serif;font-size:14px;fill:#28253D;}@keyframes edge-animation-frame{from{stroke-dashoffset:0;}}@keyframes dash{to{stroke-dashoffset:0;}}#diagram-1789812988840-l44a9n .edge-animation-slow{stroke-dasharray:9,5!important;stroke-dashoffset:900;animation:dash 50s linear infinite;stroke-linecap:round;}#diagram-1789812988840-l44a9n .edge-animation-fast{stroke-dasharray:9,5!important;stroke-dashoffset:900;animation:dash 20s linear infinite;stroke-linecap:round;}#diagram-1789812988840-l44a9n .error-icon{fill:#ffffff;}#diagram-1789812988840-l44a9n .error-text{fill:#000000;stroke:#000000;}#diagram-1789812988840-l44a9n .edge-thickness-normal{stroke-width:2px;}#diagram-1789812988840-l44a9n .edge-thickness-thick{stroke-width:3.5px;}#diagram-1789812988840-l44a9n .edge-pattern-solid{stroke-dasharray:0;}#diagram-1789812988840-l44a9n .edge-thickness-invisible{stroke-width:0;fill:none;}#diagram-1789812988840-l44a9n .edge-pattern-dashed{stroke-dasharray:3;}#diagram-1789812988840-l44a9n .edge-pattern-dotted{stroke-dasharray:2;}#diagram-1789812988840-l44a9n .marker{fill:#000000;stroke:#000000;}#diagram-1789812988840-l44a9n .marker.cross{stroke:#000000;}#diagram-1789812988840-l44a9n svg{font-family:"Recursive Variable",arial,sans-serif;font-size:14px;}#diagram-1789812988840-l44a9n p{margin:0;}#diagram-1789812988840-l44a9n [data-look="neo"][data-color-id="color-0"].node .outer-path path{stroke:#E879F9;fill:#FDF4FF;}#diagram-1789812988840-l44a9n [data-look="neo"][data-color-id="color-0"].node .divider path{stroke:#E879F9;}#diagram-1789812988840-l44a9n [data-look="neo"][data-color-id="color-1"].node .outer-path path{stroke:#2DD4BF;fill:#F0FDFA;}#diagram-1789812988840-l44a9n [data-look="neo"][data-color-id="color-1"].node .divider path{stroke:#2DD4BF;}#diagram-1789812988840-l44a9n [data-look="neo"][data-color-id="color-2"].node .outer-path path{stroke:#FB923C;fill:#FFF7ED;}#diagram-1789812988840-l44a9n [data-look="neo"][data-color-id="color-2"].node .divider path{stroke:#FB923C;}#diagram-1789812988840-l44a9n [data-look="neo"][data-color-id="color-3"].node .outer-path path{stroke:#22D3EE;fill:#ECFEFF;}#diagram-1789812988840-l44a9n [data-look="neo"][data-color-id="color-3"].node .divider path{stroke:#22D3EE;}#diagram-1789812988840-l44a9n [data-look="neo"][data-color-id="color-4"].node .outer-path path{stroke:#4ADE80;fill:#F0FDF4;}#diagram-1789812988840-l44a9n [data-look="neo"][data-color-id="color-4"].node .divider path{stroke:#4ADE80;}#diagram-1789812988840-l44a9n [data-look="neo"][data-color-id="color-5"].node .outer-path path{stroke:#A78BFA;fill:#F5F3FF;}#diagram-1789812988840-l44a9n [data-look="neo"][data-color-id="color-5"].node .divider path{stroke:#A78BFA;}#diagram-1789812988840-l44a9n [data-look="neo"][data-color-id="color-6"].node .outer-path path{stroke:#F87171;fill:#FEF2F2;}#diagram-1789812988840-l44a9n [data-look="neo"][data-color-id="color-6"].node .divider path{stroke:#F87171;}#diagram-1789812988840-l44a9n [data-look="neo"][data-color-id="color-7"].node .outer-path path{stroke:#FACC15;fill:#FEFCE8;}#diagram-1789812988840-l44a9n [data-look="neo"][data-color-id="color-7"].node .divider path{stroke:#FACC15;}#diagram-1789812988840-l44a9n [data-look="neo"][data-color-id="color-8"].node .outer-path path{stroke:#818CF8;fill:#EEF2FF;}#diagram-1789812988840-l44a9n [data-look="neo"][data-color-id="color-8"].node .divider path{stroke:#818CF8;}#diagram-1789812988840-l44a9n [data-look="neo"][data-color-id="color-9"].node .outer-path path{stroke:#A3E635;fill:#F7FEE7;}#diagram-1789812988840-l44a9n [data-look="neo"][data-color-id="color-9"].node .divider path{stroke:#A3E635;}#diagram-1789812988840-l44a9n [data-look="neo"][data-color-id="color-10"].node .outer-path path{stroke:#38BDF8;fill:#F0F9FF;}#diagram-1789812988840-l44a9n [data-look="neo"][data-color-id="color-10"].node .divider path{stroke:#38BDF8;}#diagram-1789812988840-l44a9n [data-look="neo"][data-color-id="color-11"].node .outer-path path{stroke:#FB7185;fill:#FFF1F2;}#diagram-1789812988840-l44a9n [data-look="neo"][data-color-id="color-11"].node .divider path{stroke:#FB7185;}#diagram-1789812988840-l44a9n g.classGroup text{fill:#28253D;stroke:none;font-family:"Recursive Variable",arial,sans-serif;font-size:10px;}#diagram-1789812988840-l44a9n g.classGroup text .title{font-weight:bolder;}#diagram-1789812988840-l44a9n .cluster-label text{fill:#000000;}#diagram-1789812988840-l44a9n .cluster-label span{color:#000000;}#diagram-1789812988840-l44a9n .cluster-label span p{background-color:transparent;}#diagram-1789812988840-l44a9n .cluster rect{fill:#F9F9FB;stroke:#BDBCCC;stroke-width:1px;}#diagram-1789812988840-l44a9n .cluster text{fill:#000000;}#diagram-1789812988840-l44a9n .cluster span{color:#000000;}#diagram-1789812988840-l44a9n .nodeLabel,#diagram-1789812988840-l44a9n .edgeLabel{color:#28253D;}#diagram-1789812988840-l44a9n .noteLabel .nodeLabel,#diagram-1789812988840-l44a9n .noteLabel .edgeLabel{color:#28253D;}#diagram-1789812988840-l44a9n .edgeLabel .label rect{fill:#ffffff;}#diagram-1789812988840-l44a9n .label text{fill:#28253D;}#diagram-1789812988840-l44a9n .labelBkg{background:#ffffff;}#diagram-1789812988840-l44a9n .edgeLabel .label span{background:#ffffff;}#diagram-1789812988840-l44a9n .classTitle{font-weight:bolder;}#diagram-1789812988840-l44a9n .node rect,#diagram-1789812988840-l44a9n .node circle,#diagram-1789812988840-l44a9n .node ellipse,#diagram-1789812988840-l44a9n .node polygon,#diagram-1789812988840-l44a9n .node path{fill:#ffffff;stroke:#28253D;stroke-width:2;}#diagram-1789812988840-l44a9n .divider{stroke:#28253D;stroke-width:1;}#diagram-1789812988840-l44a9n g.clickable{cursor:pointer;}#diagram-1789812988840-l44a9n g.classGroup rect{fill:#ffffff;stroke:#28253D;}#diagram-1789812988840-l44a9n g.classGroup line{stroke:#28253D;stroke-width:1;}#diagram-1789812988840-l44a9n .classLabel .box{stroke:none;stroke-width:0;fill:#ffffff;opacity:0.5;}#diagram-1789812988840-l44a9n .classLabel .label{fill:#28253D;font-size:10px;}#diagram-1789812988840-l44a9n .relation{stroke:#000000;stroke-width:2;fill:none;}#diagram-1789812988840-l44a9n .dashed-line{stroke-dasharray:3;}#diagram-1789812988840-l44a9n .dotted-line{stroke-dasharray:1 2;}#diagram-1789812988840-l44a9n [id$="-compositionStart"],#diagram-1789812988840-l44a9n .composition{fill:#000000!important;stroke:#000000!important;stroke-width:1;}#diagram-1789812988840-l44a9n [id$="-compositionEnd"],#diagram-1789812988840-l44a9n .composition{fill:#000000!important;stroke:#000000!important;stroke-width:1;}#diagram-1789812988840-l44a9n [id$="-dependencyStart"],#diagram-1789812988840-l44a9n .dependency{fill:#000000!important;stroke:#000000!important;stroke-width:1;}#diagram-1789812988840-l44a9n [id$="-dependencyEnd"],#diagram-1789812988840-l44a9n .dependency{fill:#000000!important;stroke:#000000!important;stroke-width:1;}#diagram-1789812988840-l44a9n [id$="-extensionStart"],#diagram-1789812988840-l44a9n .extension{fill:transparent!important;stroke:#000000!important;stroke-width:1;}#diagram-1789812988840-l44a9n [id$="-extensionEnd"],#diagram-1789812988840-l44a9n .extension{fill:transparent!important;stroke:#000000!important;stroke-width:1;}#diagram-1789812988840-l44a9n [id$="-aggregationStart"],#diagram-1789812988840-l44a9n .aggregation{fill:transparent!important;stroke:#000000!important;stroke-width:1;}#diagram-1789812988840-l44a9n [id$="-aggregationEnd"],#diagram-1789812988840-l44a9n .aggregation{fill:transparent!important;stroke:#000000!important;stroke-width:1;}#diagram-1789812988840-l44a9n [id$="-lollipopStart"],#diagram-1789812988840-l44a9n .lollipop{fill:#ffffff!important;stroke:#000000!important;stroke-width:1;}#diagram-1789812988840-l44a9n [id$="-lollipopEnd"],#diagram-1789812988840-l44a9n .lollipop{fill:#ffffff!important;stroke:#000000!important;stroke-width:1;}#diagram-1789812988840-l44a9n .edgeTerminals{font-size:11px;line-height:initial;}#diagram-1789812988840-l44a9n .classTitleText{text-anchor:middle;font-size:18px;fill:#28253D;}#diagram-1789812988840-l44a9n .edgeLabel[data-look="neo"]{background-color:hsl(-120, 0%, 80%);text-align:center;}#diagram-1789812988840-l44a9n .edgeLabel[data-look="neo"] p{background-color:hsl(-120, 0%, 80%);}#diagram-1789812988840-l44a9n .edgeLabel[data-look="neo"] rect{opacity:0.5;background-color:hsl(-120, 0%, 80%);fill:hsl(-120, 0%, 80%);}#diagram-1789812988840-l44a9n .label-icon{display:inline-block;height:1em;overflow:visible;vertical-align:-0.125em;}#diagram-1789812988840-l44a9n .node .label-icon path{fill:currentColor;stroke:revert;stroke-width:revert;}#diagram-1789812988840-l44a9n .node .neo-node{stroke:#28253D;}#diagram-1789812988840-l44a9n [data-look="neo"].node rect,#diagram-1789812988840-l44a9n [data-look="neo"].cluster rect,#diagram-1789812988840-l44a9n [data-look="neo"].node polygon{stroke:#28253D;filter:url(#diagram-1789812988840-l44a9n-drop-shadow);}#diagram-1789812988840-l44a9n [data-look="neo"].swimlane.cluster rect{filter:none;}#diagram-1789812988840-l44a9n [data-look="neo"].node path{stroke:#28253D;stroke-width:2px;}#diagram-1789812988840-l44a9n [data-look="neo"].node .outer-path{filter:url(#diagram-1789812988840-l44a9n-drop-shadow);}#diagram-1789812988840-l44a9n [data-look="neo"].node .neo-line path{stroke:#28253D;filter:none;}#diagram-1789812988840-l44a9n [data-look="neo"].node circle{stroke:#28253D;filter:url(#diagram-1789812988840-l44a9n-drop-shadow);}#diagram-1789812988840-l44a9n [data-look="neo"].node circle .state-start{fill:#000000;}#diagram-1789812988840-l44a9n [data-look="neo"].icon-shape .icon{fill:#28253D;filter:url(#diagram-1789812988840-l44a9n-drop-shadow);}#diagram-1789812988840-l44a9n [data-look="neo"].icon-shape .icon-neo path{stroke:#28253D;filter:url(#diagram-1789812988840-l44a9n-drop-shadow);}#diagram-1789812988840-l44a9n :root{--mermaid-font-family:"trebuchet ms",verdana,arial,sans-serif;}</style><g><defs><marker id="diagram-1789812988840-l44a9n_classDiagram-aggregationStart" class="marker aggregation classDiagram" refX="18" refY="7" markerWidth="190" markerHeight="240" orient="auto" markerUnits="userSpaceOnUse"><path d="M 18,7 L9,13 L1,7 L9,1 Z"></path></marker></defs><defs><marker id="diagram-1789812988840-l44a9n_classDiagram-aggregationEnd" class="marker aggregation classDiagram" refX="1" refY="7" markerWidth="20" markerHeight="28" orient="auto" markerUnits="userSpaceOnUse"><path d="M 18,7 L9,13 L1,7 L9,1 Z"></path></marker></defs><defs><marker id="diagram-1789812988840-l44a9n_classDiagram-aggregationStart-margin" class="marker aggregation classDiagram" refX="15" refY="7" markerWidth="190" markerHeight="240" orient="auto" markerUnits="userSpaceOnUse"><path d="M 18,7 L9,13 L1,7 L9,1 Z" style="stroke-width: 2;"></path></marker></defs><defs><marker id="diagram-1789812988840-l44a9n_classDiagram-aggregationEnd-margin" class="marker aggregation classDiagram" refX="1" refY="7" markerWidth="20" markerHeight="28" orient="auto" markerUnits="userSpaceOnUse"><path d="M 18,7 L9,13 L1,7 L9,1 Z" style="stroke-width: 2;"></path></marker></defs><defs><marker id="diagram-1789812988840-l44a9n_classDiagram-extensionStart" class="marker extension classDiagram" refX="18" refY="7" markerWidth="20" markerHeight="28" orient="auto" markerUnits="userSpaceOnUse"><path d="M 1,7 L18,13 V 1 Z"></path></marker></defs><defs><marker id="diagram-1789812988840-l44a9n_classDiagram-extensionEnd" class="marker extension classDiagram" refX="1" refY="7" markerWidth="20" markerHeight="28" orient="auto" markerUnits="userSpaceOnUse"><path d="M 1,1 V 13 L18,7 Z"></path></marker></defs><marker id="diagram-1789812988840-l44a9n_classDiagram-extensionStart-margin" class="marker extension classDiagram" refX="18" refY="7" markerWidth="20" markerHeight="28" orient="auto" markerUnits="userSpaceOnUse" viewBox="0 0 20 14"><polygon points="10,7 18,13 18,1" style="stroke-width: 2; stroke-dasharray: 0;"></polygon></marker><defs><marker id="diagram-1789812988840-l44a9n_classDiagram-extensionEnd-margin" class="marker extension classDiagram" refX="9" refY="7" markerWidth="20" markerHeight="28" orient="auto" markerUnits="userSpaceOnUse" viewBox="0 0 20 14"><polygon points="10,1 10,13 18,7" style="stroke-width: 2; stroke-dasharray: 0;"></polygon></marker></defs><defs><marker id="diagram-1789812988840-l44a9n_classDiagram-compositionStart" class="marker composition classDiagram" refX="18" refY="7" markerWidth="190" markerHeight="240" orient="auto" markerUnits="userSpaceOnUse"><path d="M 18,7 L9,13 L1,7 L9,1 Z"></path></marker></defs><defs><marker id="diagram-1789812988840-l44a9n_classDiagram-compositionEnd" class="marker composition classDiagram" refX="1" refY="7" markerWidth="20" markerHeight="28" orient="auto" markerUnits="userSpaceOnUse"><path d="M 18,7 L9,13 L1,7 L9,1 Z"></path></marker></defs><defs><marker id="diagram-1789812988840-l44a9n_classDiagram-compositionStart-margin" class="marker composition classDiagram" refX="15" refY="7" markerWidth="190" markerHeight="240" orient="auto" markerUnits="userSpaceOnUse"><path viewBox="0 0 15 15" d="M 18,7 L9,13 L1,7 L9,1 Z" style="stroke-width: 0;"></path></marker></defs><defs><marker id="diagram-1789812988840-l44a9n_classDiagram-compositionEnd-margin" class="marker composition classDiagram" refX="3.5" refY="7" markerWidth="20" markerHeight="28" orient="auto" markerUnits="userSpaceOnUse"><path d="M 18,7 L9,13 L1,7 L9,1 Z" style="stroke-width: 0;"></path></marker></defs><defs><marker id="diagram-1789812988840-l44a9n_classDiagram-dependencyStart" class="marker dependency classDiagram" refX="6" refY="7" markerWidth="190" markerHeight="240" orient="auto" markerUnits="userSpaceOnUse"><path d="M 5,7 L9,13 L1,7 L9,1 Z"></path></marker></defs><defs><marker id="diagram-1789812988840-l44a9n_classDiagram-dependencyEnd" class="marker dependency classDiagram" refX="13" refY="7" markerWidth="20" markerHeight="28" orient="auto" markerUnits="userSpaceOnUse"><path d="M 18,7 L9,13 L14,7 L9,1 Z"></path></marker></defs><defs><marker id="diagram-1789812988840-l44a9n_classDiagram-dependencyStart-margin" class="marker dependency classDiagram" refX="4" refY="7" markerWidth="190" markerHeight="240" orient="auto" markerUnits="userSpaceOnUse"><path d="M 5,7 L9,13 L1,7 L9,1 Z" style="stroke-width: 0;"></path></marker></defs><defs><marker id="diagram-1789812988840-l44a9n_classDiagram-dependencyEnd-margin" class="marker dependency classDiagram" refX="16" refY="7" markerWidth="20" markerHeight="28" orient="auto" markerUnits="userSpaceOnUse"><path d="M 18,7 L9,13 L14,7 L9,1 Z" style="stroke-width: 0;"></path></marker></defs><defs><marker id="diagram-1789812988840-l44a9n_classDiagram-lollipopStart" class="marker lollipop classDiagram" refX="13" refY="7" markerWidth="190" markerHeight="240" orient="auto" markerUnits="userSpaceOnUse"><circle fill="transparent" cx="7" cy="7" r="6"></circle></marker></defs><defs><marker id="diagram-1789812988840-l44a9n_classDiagram-lollipopEnd" class="marker lollipop classDiagram" refX="1" refY="7" markerWidth="190" markerHeight="240" orient="auto" markerUnits="userSpaceOnUse"><circle fill="transparent" cx="7" cy="7" r="6"></circle></marker></defs><defs><marker id="diagram-1789812988840-l44a9n_classDiagram-lollipopStart-margin" class="marker lollipop classDiagram" refX="13" refY="7" markerWidth="190" markerHeight="240" orient="auto" markerUnits="userSpaceOnUse"><circle fill="transparent" cx="7" cy="7" r="6" stroke-width="2"></circle></marker></defs><defs><marker id="diagram-1789812988840-l44a9n_classDiagram-lollipopEnd-margin" class="marker lollipop classDiagram" refX="1" refY="7" markerWidth="190" markerHeight="240" orient="auto" markerUnits="userSpaceOnUse"><circle fill="transparent" cx="7" cy="7" r="6" stroke-width="2"></circle></marker></defs><g class="root"><g class="clusters"></g><g class="edges edgePaths"><path d="M147.25,475.3333333333333L160.17893218813452,475.3333333333333Q167.25,475.3333333333333 167.25,468.26226552146784L167.25,425.0710678118655Q167.25,418 174.32106781186548,418L263.6979179382324,418" id="diagram-1789812988840-l44a9n-id_e_Project_e_Task_1" class="edge-thickness-normal edge-pattern-solid relation" style="stroke-dasharray: 0 0 168.45298767089844 0; stroke-dashoffset: 0;;;;" data-edge="true" data-et="edge" data-id="id_e_Project_e_Task_1" data-points="W3sieCI6MTQ3LjI1LCJ5Ijo0NzUuMzMzMzMzMzMzMzMzM30seyJ4IjoxNjcuMjUsInkiOjQ3NS4zMzMzMzMzMzMzMzMzfSx7IngiOjE2Ny4yNSwieSI6NDE4fSx7IngiOjI4MC45NDc5MTc5MzgyMzI0LCJ5Ijo0MTh9XQ==" data-look="neo" marker-end="url(#diagram-1789812988840-l44a9n_classDiagram-compositionEnd-margin)"></path><path d="M147.25,502.66666666666663L160.17893218813452,502.66666666666663Q167.25,502.66666666666663 167.25,509.7377344785321L167.25,552.9289321881345Q167.25,560 174.32106781186548,560L263.6979179382324,560" id="diagram-1789812988840-l44a9n-id_e_Project_e_Stage_2" class="edge-thickness-normal edge-pattern-solid relation" style="stroke-dasharray: 0 0 168.45297241210938 0; stroke-dashoffset: 0;;;;" data-edge="true" data-et="edge" data-id="id_e_Project_e_Stage_2" data-points="W3sieCI6MTQ3LjI1LCJ5Ijo1MDIuNjY2NjY2NjY2NjY2NjN9LHsieCI6MTY3LjI1LCJ5Ijo1MDIuNjY2NjY2NjY2NjY2NjN9LHsieCI6MTY3LjI1LCJ5Ijo1NjB9LHsieCI6MjgwLjk0NzkxNzkzODIzMjQsInkiOjU2MH1d" data-look="neo" marker-end="url(#diagram-1789812988840-l44a9n_classDiagram-compositionEnd-margin)"></path><path d="M147.25,759.3333333333333L160.17893218813452,759.3333333333333Q167.25,759.3333333333333 167.25,752.2622655214677L167.25,709.0710678118655Q167.25,702 174.32106781186548,702L263.6979179382324,702" id="diagram-1789812988840-l44a9n-id_e_User_e_AISession_3" class="edge-thickness-normal edge-pattern-solid relation" style="stroke-dasharray: 0 0 168.45298767089844 0; stroke-dashoffset: 0;;;;" data-edge="true" data-et="edge" data-id="id_e_User_e_AISession_3" data-points="W3sieCI6MTQ3LjI1LCJ5Ijo3NTkuMzMzMzMzMzMzMzMzM30seyJ4IjoxNjcuMjUsInkiOjc1OS4zMzMzMzMzMzMzMzMzfSx7IngiOjE2Ny4yNSwieSI6NzAyfSx7IngiOjI4MC45NDc5MTc5MzgyMzI0LCJ5Ijo3MDJ9XQ==" data-look="neo" marker-end="url(#diagram-1789812988840-l44a9n_classDiagram-compositionEnd-margin)"></path><path d="M147.25,786.6666666666666L160.17893218813452,786.6666666666666Q167.25,786.6666666666666 167.25,793.737734478532L167.25,836.9289321881345Q167.25,844 174.32106781186548,844L263.6979179382324,844" id="diagram-1789812988840-l44a9n-id_e_User_e_Agent_4" class="edge-thickness-normal edge-pattern-solid relation" style="stroke-dasharray: 0 0 168.4529571533203 0; stroke-dashoffset: 0;;;;" data-edge="true" data-et="edge" data-id="id_e_User_e_Agent_4" data-points="W3sieCI6MTQ3LjI1LCJ5Ijo3ODYuNjY2NjY2NjY2NjY2Nn0seyJ4IjoxNjcuMjUsInkiOjc4Ni42NjY2NjY2NjY2NjY2fSx7IngiOjE2Ny4yNSwieSI6ODQ0fSx7IngiOjI4MC45NDc5MTc5MzgyMzI0LCJ5Ijo4NDR9XQ==" data-look="neo" marker-end="url(#diagram-1789812988840-l44a9n_classDiagram-compositionEnd-margin)"></path></g><g class="edgeLabels"><g class="edgeLabel" transform="translate(214.0989589691162, 417.5)"><g class="label" data-id="id_e_Project_e_Task_1" transform="translate(-26.84895896911621, -10.5)"><foreignObject width="53.69791793823242" height="21"><div xmlns="http://www.w3.org/1999/xhtml" class="labelBkg" style="display: table-cell; white-space: nowrap; line-height: 1.5; max-width: 200px; text-align: center;"><span class="edgeLabel"><p>projectId</p></span></div></foreignObject></g></g><g class="edgeLabel" transform="translate(214.0989589691162, 559.5)"><g class="label" data-id="id_e_Project_e_Stage_2" transform="translate(-26.84895896911621, -10.5)"><foreignObject width="53.69791793823242" height="21"><div xmlns="http://www.w3.org/1999/xhtml" class="labelBkg" style="display: table-cell; white-space: nowrap; line-height: 1.5; max-width: 200px; text-align: center;"><span class="edgeLabel"><p>projectId</p></span></div></foreignObject></g></g><g class="edgeLabel" transform="translate(214.0989589691162, 701.5)"><g class="label" data-id="id_e_User_e_AISession_3" transform="translate(-19.45833396911621, -10.5)"><foreignObject width="38.91666793823242" height="21"><div xmlns="http://www.w3.org/1999/xhtml" class="labelBkg" style="display: table-cell; white-space: nowrap; line-height: 1.5; max-width: 200px; text-align: center;"><span class="edgeLabel"><p>userId</p></span></div></foreignObject></g></g><g class="edgeLabel" transform="translate(214.0989589691162, 843.5)"><g class="label" data-id="id_e_User_e_Agent_4" transform="translate(-19.45833396911621, -10.5)"><foreignObject width="38.91666793823242" height="21"><div xmlns="http://www.w3.org/1999/xhtml" class="labelBkg" style="display: table-cell; white-space: nowrap; line-height: 1.5; max-width: 200px; text-align: center;"><span class="edgeLabel"><p>userId</p></span></div></foreignObject></g></g></g><g class="nodes"><g class="node default" id="diagram-1789812988840-l44a9n-classId-AIModelProvider-178" data-color-id="color-0" data-look="neo" transform="translate(79.625, 63)"><g class="basic label-container outer-path"><path d="M-67.625 -51 L67.625 -51 L67.625 51 L-67.625 51" stroke="none" stroke-width="0" fill="#ffffff" style=""></path><path d="M-67.625 -51 C-18.858621942376516 -51, 29.90775611524697 -51, 67.625 -51 M-67.625 -51 C-35.969529388177406 -51, -4.314058776354813 -51, 67.625 -51 M67.625 -51 C67.625 -24.90337113334107, 67.625 1.1932577333178571, 67.625 51 M67.625 -51 C67.625 -26.611776394606736, 67.625 -2.223552789213471, 67.625 51 M67.625 51 C27.132467189295582 51, -13.360065621408836 51, -67.625 51 M67.625 51 C23.09451006369472 51, -21.43597987261056 51, -67.625 51 M-67.625 51 C-67.625 20.251713671814066, -67.625 -10.496572656371868, -67.625 -51 M-67.625 51 C-67.625 25.845280416915262, -67.625 0.6905608338305242, -67.625 -51" stroke="#28253D" stroke-width="1.3" fill="none" stroke-dasharray="0 0" style=""></path></g><g class="annotation-group text" transform="translate(-46.703125, -27)"><g class="label" style="" transform="translate(0,-10.5)"><foreignObject width="93.40625" height="21"><div xmlns="http://www.w3.org/1999/xhtml" style="display: table-cell; white-space: nowrap; line-height: 1.5; max-width: 162px; text-align: center;"><span class="nodeLabel markdown-node-label" style=""><p>«enumeration»</p></span></div></foreignObject></g></g><g class="label-group text" transform="translate(-55.625, -6)"><g class="label" style="font-weight: bolder" transform="translate(0,-10.5)"><foreignObject width="111.25" height="21"><div xmlns="http://www.w3.org/1999/xhtml" style="display: table-cell; white-space: nowrap; line-height: 1.5; max-width: 170px; text-align: center;"><span class="nodeLabel markdown-node-label" style=""><p>AIModelProvider</p></span></div></foreignObject></g></g><g class="members-group text" transform="translate(-55.625, 39)"></g><g class="methods-group text" transform="translate(-55.625, 69)"></g><g class="divider neo-line" style=""><path d="M-67.625 15 C-17.64131124683241 15.000369565166382, 32.34237750633518 15.000739130332764, 67.625 15.001 M-67.625 15 C-27.420824933166884 15.000297258226002, 12.783350133666232 15.000594516452004, 67.625 15.001" stroke="#28253D" stroke-width="1.3" fill="none" stroke-dasharray="0 0" style=""></path></g><g class="divider neo-line" style=""><path d="M-67.625 33 C-31.269609425772963 33.00026880140905, 5.085781148454075 33.0005376028181, 67.625 33.001 M-67.625 33 C-32.21975265373571 33.00026177632049, 3.1854946925285788 33.00052355264098, 67.625 33.001" stroke="#28253D" stroke-width="1.3" fill="none" stroke-dasharray="0 0" style=""></path></g></g><g class="node default" id="diagram-1789812988840-l44a9n-classId-UserRole-179" data-color-id="color-1" data-look="neo" transform="translate(79.625, 205)"><g class="basic label-container outer-path"><path d="M-58.703125 -51 L58.703125 -51 L58.703125 51 L-58.703125 51" stroke="none" stroke-width="0" fill="#ffffff" style=""></path><path d="M-58.703125 -51 C-31.782517871003332 -51, -4.861910742006664 -51, 58.703125 -51 M-58.703125 -51 C-12.540097662976727 -51, 33.622929674046546 -51, 58.703125 -51 M58.703125 -51 C58.703125 -10.235927402591052, 58.703125 30.528145194817895, 58.703125 51 M58.703125 -51 C58.703125 -30.425722118589153, 58.703125 -9.851444237178306, 58.703125 51 M58.703125 51 C17.831560592891222 51, -23.040003814217556 51, -58.703125 51 M58.703125 51 C24.997570964655466 51, -8.707983070689068 51, -58.703125 51 M-58.703125 51 C-58.703125 12.756354558813996, -58.703125 -25.487290882372008, -58.703125 -51 M-58.703125 51 C-58.703125 21.99292537122759, -58.703125 -7.0141492575448225, -58.703125 -51" stroke="#28253D" stroke-width="1.3" fill="none" stroke-dasharray="0 0" style=""></path></g><g class="annotation-group text" transform="translate(-46.703125, -27)"><g class="label" style="" transform="translate(0,-10.5)"><foreignObject width="93.40625" height="21"><div xmlns="http://www.w3.org/1999/xhtml" style="display: table-cell; white-space: nowrap; line-height: 1.5; max-width: 162px; text-align: center;"><span class="nodeLabel markdown-node-label" style=""><p>«enumeration»</p></span></div></foreignObject></g></g><g class="label-group text" transform="translate(-30.734375, -6)"><g class="label" style="font-weight: bolder" transform="translate(0,-10.5)"><foreignObject width="61.46875" height="21"><div xmlns="http://www.w3.org/1999/xhtml" style="display: table-cell; white-space: nowrap; line-height: 1.5; max-width: 117px; text-align: center;"><span class="nodeLabel markdown-node-label" style=""><p>UserRole</p></span></div></foreignObject></g></g><g class="members-group text" transform="translate(-46.703125, 39)"></g><g class="methods-group text" transform="translate(-46.703125, 69)"></g><g class="divider neo-line" style=""><path d="M-58.703125 15 C-20.219475166902157 15.000327781952265, 18.264174666195686 15.00065556390453, 58.703125 15.001 M-58.703125 15 C-21.389614786712997 15.000317815365138, 15.923895426574006 15.000635630730276, 58.703125 15.001" stroke="#28253D" stroke-width="1.3" fill="none" stroke-dasharray="0 0" style=""></path></g><g class="divider neo-line" style=""><path d="M-58.703125 33 C-19.46334394169041 33.00033422225016, 19.776437116619178 33.00066844450033, 58.703125 33.001 M-58.703125 33 C-27.930968915283866 33.000262099812275, 2.841187169432267 33.00052419962454, 58.703125 33.001" stroke="#28253D" stroke-width="1.3" fill="none" stroke-dasharray="0 0" style=""></path></g></g><g class="node default" id="diagram-1789812988840-l44a9n-classId-TaskStatus-180" data-color-id="color-2" data-look="neo" transform="translate(79.625, 347)"><g class="basic label-container outer-path"><path d="M-58.703125 -51 L58.703125 -51 L58.703125 51 L-58.703125 51" stroke="none" stroke-width="0" fill="#ffffff" style=""></path><path d="M-58.703125 -51 C-31.41339500404048 -51, -4.1236650080809625 -51, 58.703125 -51 M-58.703125 -51 C-29.19955010840784 -51, 0.30402478318431747 -51, 58.703125 -51 M58.703125 -51 C58.703125 -26.7171804826048, 58.703125 -2.434360965209599, 58.703125 51 M58.703125 -51 C58.703125 -10.494211657604446, 58.703125 30.01157668479111, 58.703125 51 M58.703125 51 C35.165119400910534 51, 11.627113801821068 51, -58.703125 51 M58.703125 51 C22.26063268613524 51, -14.181859627729523 51, -58.703125 51 M-58.703125 51 C-58.703125 28.89321455546626, -58.703125 6.7864291109325166, -58.703125 -51 M-58.703125 51 C-58.703125 16.88868032354975, -58.703125 -17.2226393529005, -58.703125 -51" stroke="#28253D" stroke-width="1.3" fill="none" stroke-dasharray="0 0" style=""></path></g><g class="annotation-group text" transform="translate(-46.703125, -27)"><g class="label" style="" transform="translate(0,-10.5)"><foreignObject width="93.40625" height="21"><div xmlns="http://www.w3.org/1999/xhtml" style="display: table-cell; white-space: nowrap; line-height: 1.5; max-width: 162px; text-align: center;"><span class="nodeLabel markdown-node-label" style=""><p>«enumeration»</p></span></div></foreignObject></g></g><g class="label-group text" transform="translate(-36.833335876464844, -6)"><g class="label" style="font-weight: bolder" transform="translate(0,-10.5)"><foreignObject width="73.66667175292969" height="21"><div xmlns="http://www.w3.org/1999/xhtml" style="display: table-cell; white-space: nowrap; line-height: 1.5; max-width: 134px; text-align: center;"><span class="nodeLabel markdown-node-label" style=""><p>TaskStatus</p></span></div></foreignObject></g></g><g class="members-group text" transform="translate(-46.703125, 39)"></g><g class="methods-group text" transform="translate(-46.703125, 69)"></g><g class="divider neo-line" style=""><path d="M-58.703125 15 C-22.386536311274504 15.000309324151727, 13.930052377450991 15.000618648303455, 58.703125 15.001 M-58.703125 15 C-13.5234128780818 15.000384815221693, 31.6562992438364 15.000769630443386, 58.703125 15.001" stroke="#28253D" stroke-width="1.3" fill="none" stroke-dasharray="0 0" style=""></path></g><g class="divider neo-line" style=""><path d="M-58.703125 33 C-27.374255235701675 33.00026684158436, 3.9546145285966503 33.000533683168726, 58.703125 33.001 M-58.703125 33 C-31.811724394511074 33.00022904573313, -4.920323789022149 33.000458091466264, 58.703125 33.001" stroke="#28253D" stroke-width="1.3" fill="none" stroke-dasharray="0 0" style=""></path></g></g><g class="node default" id="diagram-1789812988840-l44a9n-classId-e_Project-181" data-color-id="color-3" data-look="neo" transform="translate(103.72916793823242, 489)"><g class="basic label-container outer-path"><path d="M-43.52083396911621 -51 L43.52083396911621 -51 L43.52083396911621 51 L-43.52083396911621 51" stroke="none" stroke-width="0" fill="#ffffff" style=""></path><path d="M-43.52083396911621 -51 C-23.119724706563733 -51, -2.718615444011256 -51, 43.52083396911621 -51 M-43.52083396911621 -51 C-14.375908816720486 -51, 14.76901633567524 -51, 43.52083396911621 -51 M43.52083396911621 -51 C43.52083396911621 -14.054698822353558, 43.52083396911621 22.890602355292884, 43.52083396911621 51 M43.52083396911621 -51 C43.52083396911621 -20.109608826197917, 43.52083396911621 10.780782347604166, 43.52083396911621 51 M43.52083396911621 51 C16.96214085985738 51, -9.596552249401448 51, -43.52083396911621 51 M43.52083396911621 51 C25.486456920801963 51, 7.452079872487715 51, -43.52083396911621 51 M-43.52083396911621 51 C-43.52083396911621 16.63112501899009, -43.52083396911621 -17.73774996201982, -43.52083396911621 -51 M-43.52083396911621 51 C-43.52083396911621 23.447666151318327, -43.52083396911621 -4.104667697363347, -43.52083396911621 -51" stroke="#28253D" stroke-width="1.3" fill="none" stroke-dasharray="0 0" style=""></path></g><g class="annotation-group text" transform="translate(-24.52083396911621, -27)"><g class="label" style="" transform="translate(0,-10.5)"><foreignObject width="49.04166793823242" height="21"><div xmlns="http://www.w3.org/1999/xhtml" style="display: table-cell; white-space: nowrap; line-height: 1.5; max-width: 111px; text-align: center;"><span class="nodeLabel markdown-node-label" style=""><p>«entity»</p></span></div></foreignObject></g></g><g class="label-group text" transform="translate(-31.52083396911621, -6)"><g class="label" style="font-weight: bolder" transform="translate(0,-10.5)"><foreignObject width="63.04166793823242" height="21"><div xmlns="http://www.w3.org/1999/xhtml" style="display: table-cell; white-space: nowrap; line-height: 1.5; max-width: 123px; text-align: center;"><span class="nodeLabel markdown-node-label" style=""><p>e_Project</p></span></div></foreignObject></g></g><g class="members-group text" transform="translate(-31.52083396911621, 39)"></g><g class="methods-group text" transform="translate(-31.52083396911621, 69)"></g><g class="divider neo-line" style=""><path d="M-43.52083206176758 15 C-11.929945509399694 15.000362939827385, 19.66094104296819 15.000725879654771, 43.52083206176758 15.001 M-43.52083206176758 15 C-21.493372605143183 15.000253067995407, 0.5340868514812129 15.000506135990813, 43.52083206176758 15.001" stroke="#28253D" stroke-width="1.3" fill="none" stroke-dasharray="0 0" style=""></path></g><g class="divider neo-line" style=""><path d="M-43.52083206176758 33 C-10.840973793713417 33.0003754507522, 21.838884474340745 33.000750901504404, 43.52083206176758 33.001 M-43.52083206176758 33 C-10.219001530502638 33.00038259643662, 23.082829000762302 33.00076519287324, 43.52083206176758 33.001" stroke="#28253D" stroke-width="1.3" fill="none" stroke-dasharray="0 0" style=""></path></g></g><g class="node default" id="diagram-1789812988840-l44a9n-classId-e_User-182" data-color-id="color-4" data-look="neo" transform="translate(110.72916793823242, 773)"><g class="basic label-container outer-path"><path d="M-36.52083396911621 -51 L36.52083396911621 -51 L36.52083396911621 51 L-36.52083396911621 51" stroke="none" stroke-width="0" fill="#ffffff" style=""></path><path d="M-36.52083396911621 -51 C-18.949277999609304 -51, -1.3777220301023974 -51, 36.52083396911621 -51 M-36.52083396911621 -51 C-17.355889910895197 -51, 1.809054147325817 -51, 36.52083396911621 -51 M36.52083396911621 -51 C36.52083396911621 -17.99658103389899, 36.52083396911621 15.006837932202018, 36.52083396911621 51 M36.52083396911621 -51 C36.52083396911621 -25.009066683174293, 36.52083396911621 0.9818666336514141, 36.52083396911621 51 M36.52083396911621 51 C8.288473604347516 51, -19.94388676042118 51, -36.52083396911621 51 M36.52083396911621 51 C11.376060641274254 51, -13.768712686567703 51, -36.52083396911621 51 M-36.52083396911621 51 C-36.52083396911621 27.8235943708163, -36.52083396911621 4.647188741632597, -36.52083396911621 -51 M-36.52083396911621 51 C-36.52083396911621 21.383483142647048, -36.52083396911621 -8.233033714705904, -36.52083396911621 -51" stroke="#28253D" stroke-width="1.3" fill="none" stroke-dasharray="0 0" style=""></path></g><g class="annotation-group text" transform="translate(-24.52083396911621, -27)"><g class="label" style="" transform="translate(0,-10.5)"><foreignObject width="49.04166793823242" height="21"><div xmlns="http://www.w3.org/1999/xhtml" style="display: table-cell; white-space: nowrap; line-height: 1.5; max-width: 111px; text-align: center;"><span class="nodeLabel markdown-node-label" style=""><p>«entity»</p></span></div></foreignObject></g></g><g class="label-group text" transform="translate(-23.354167938232422, -6)"><g class="label" style="font-weight: bolder" transform="translate(0,-10.5)"><foreignObject width="46.708335876464844" height="21"><div xmlns="http://www.w3.org/1999/xhtml" style="display: table-cell; white-space: nowrap; line-height: 1.5; max-width: 105px; text-align: center;"><span class="nodeLabel markdown-node-label" style=""><p>e_User</p></span></div></foreignObject></g></g><g class="members-group text" transform="translate(-24.52083396911621, 39)"></g><g class="methods-group text" transform="translate(-24.52083396911621, 69)"></g><g class="divider neo-line" style=""><path d="M-36.52083206176758 15 C-10.186798658370908 15.000360534411687, 16.147234745025763 15.000721068823372, 36.52083206176758 15.001 M-36.52083206176758 15 C-15.961039170052338 15.000281480346025, 4.598753721662902 15.000562960692049, 36.52083206176758 15.001" stroke="#28253D" stroke-width="1.3" fill="none" stroke-dasharray="0 0" style=""></path></g><g class="divider neo-line" style=""><path d="M-36.52083206176758 33 C-18.68540142633096 33.00024418160305, -0.8499707908943392 33.00048836320611, 36.52083206176758 33.001 M-36.52083206176758 33 C-14.46198041177681 33.00030200368399, 7.596871238213957 33.000604007367976, 36.52083206176758 33.001" stroke="#28253D" stroke-width="1.3" fill="none" stroke-dasharray="0 0" style=""></path></g></g><g class="node default" id="diagram-1789812988840-l44a9n-classId-e_Task-183" data-color-id="color-5" data-look="neo" transform="translate(317.46875, 418)"><g class="basic label-container outer-path"><path d="M-36.52083396911621 -51 L36.52083396911621 -51 L36.52083396911621 51 L-36.52083396911621 51" stroke="none" stroke-width="0" fill="#ffffff" style=""></path><path d="M-36.52083396911621 -51 C-15.510974349198403 -51, 5.498885270719406 -51, 36.52083396911621 -51 M-36.52083396911621 -51 C-20.581432501131623 -51, -4.642031033147031 -51, 36.52083396911621 -51 M36.52083396911621 -51 C36.52083396911621 -21.80292176470635, 36.52083396911621 7.394156470587298, 36.52083396911621 51 M36.52083396911621 -51 C36.52083396911621 -11.822082605731353, 36.52083396911621 27.355834788537294, 36.52083396911621 51 M36.52083396911621 51 C21.45716404754505 51, 6.393494125973884 51, -36.52083396911621 51 M36.52083396911621 51 C7.932980008346515 51, -20.65487395242318 51, -36.52083396911621 51 M-36.52083396911621 51 C-36.52083396911621 12.59635954760406, -36.52083396911621 -25.80728090479188, -36.52083396911621 -51 M-36.52083396911621 51 C-36.52083396911621 11.056219461257022, -36.52083396911621 -28.887561077485955, -36.52083396911621 -51" stroke="#28253D" stroke-width="1.3" fill="none" stroke-dasharray="0 0" style=""></path></g><g class="annotation-group text" transform="translate(-24.52083396911621, -27)"><g class="label" style="" transform="translate(0,-10.5)"><foreignObject width="49.04166793823242" height="21"><div xmlns="http://www.w3.org/1999/xhtml" style="display: table-cell; white-space: nowrap; line-height: 1.5; max-width: 111px; text-align: center;"><span class="nodeLabel markdown-node-label" style=""><p>«entity»</p></span></div></foreignObject></g></g><g class="label-group text" transform="translate(-23.22395896911621, -6)"><g class="label" style="font-weight: bolder" transform="translate(0,-10.5)"><foreignObject width="46.44791793823242" height="21"><div xmlns="http://www.w3.org/1999/xhtml" style="display: table-cell; white-space: nowrap; line-height: 1.5; max-width: 104px; text-align: center;"><span class="nodeLabel markdown-node-label" style=""><p>e_Task</p></span></div></foreignObject></g></g><g class="members-group text" transform="translate(-24.52083396911621, 39)"></g><g class="methods-group text" transform="translate(-24.52083396911621, 69)"></g><g class="divider neo-line" style=""><path d="M-36.52083206176758 15 C-20.365643909907064 15.000221177712005, -4.21045575804655 15.00044235542401, 36.52083206176758 15.001 M-36.52083206176758 15 C-18.64783142876892 15.000244695966986, -0.7748307957702636 15.000489391933973, 36.52083206176758 15.001" stroke="#28253D" stroke-width="1.3" fill="none" stroke-dasharray="0 0" style=""></path></g><g class="divider neo-line" style=""><path d="M-36.52083206176758 33 C-14.532378426857786 33.0003010398777, 7.456075208052006 33.0006020797554, 36.52083206176758 33.001 M-36.52083206176758 33 C-10.16941936101081 33.00036077234845, 16.181993339745958 33.0007215446969, 36.52083206176758 33.001" stroke="#28253D" stroke-width="1.3" fill="none" stroke-dasharray="0 0" style=""></path></g></g><g class="node default" id="diagram-1789812988840-l44a9n-classId-e_Stage-184" data-color-id="color-6" data-look="neo" transform="translate(319.79687881469727, 560)"><g class="basic label-container outer-path"><path d="M-38.84895896911621 -51 L38.84895896911621 -51 L38.84895896911621 51 L-38.84895896911621 51" stroke="none" stroke-width="0" fill="#ffffff" style=""></path><path d="M-38.84895896911621 -51 C-16.99394058628807 -51, 4.861077796540073 -51, 38.84895896911621 -51 M-38.84895896911621 -51 C-20.628792824337665 -51, -2.40862667955912 -51, 38.84895896911621 -51 M38.84895896911621 -51 C38.84895896911621 -13.692843412808514, 38.84895896911621 23.61431317438297, 38.84895896911621 51 M38.84895896911621 -51 C38.84895896911621 -25.320144245980178, 38.84895896911621 0.3597115080396449, 38.84895896911621 51 M38.84895896911621 51 C9.630710497691314 51, -19.587537973733582 51, -38.84895896911621 51 M38.84895896911621 51 C14.227485568886209 51, -10.393987831343793 51, -38.84895896911621 51 M-38.84895896911621 51 C-38.84895896911621 29.62357497253239, -38.84895896911621 8.247149945064777, -38.84895896911621 -51 M-38.84895896911621 51 C-38.84895896911621 10.790441392838154, -38.84895896911621 -29.41911721432369, -38.84895896911621 -51" stroke="#28253D" stroke-width="1.3" fill="none" stroke-dasharray="0 0" style=""></path></g><g class="annotation-group text" transform="translate(-24.52083396911621, -27)"><g class="label" style="" transform="translate(0,-10.5)"><foreignObject width="49.04166793823242" height="21"><div xmlns="http://www.w3.org/1999/xhtml" style="display: table-cell; white-space: nowrap; line-height: 1.5; max-width: 111px; text-align: center;"><span class="nodeLabel markdown-node-label" style=""><p>«entity»</p></span></div></foreignObject></g></g><g class="label-group text" transform="translate(-26.84895896911621, -6)"><g class="label" style="font-weight: bolder" transform="translate(0,-10.5)"><foreignObject width="53.69791793823242" height="21"><div xmlns="http://www.w3.org/1999/xhtml" style="display: table-cell; white-space: nowrap; line-height: 1.5; max-width: 114px; text-align: center;"><span class="nodeLabel markdown-node-label" style=""><p>e_Stage</p></span></div></foreignObject></g></g><g class="members-group text" transform="translate(-26.84895896911621, 39)"></g><g class="methods-group text" transform="translate(-26.84895896911621, 69)"></g><g class="divider neo-line" style=""><path d="M-38.848960876464844 15 C-9.056885527981557 15.000383434648912, 20.73518982050173 15.000766869297822, 38.848960876464844 15.001 M-38.848960876464844 15 C-11.375028238485712 15.000353599324384, 16.09890439949342 15.00070719864877, 38.848960876464844 15.001" stroke="#28253D" stroke-width="1.3" fill="none" stroke-dasharray="0 0" style=""></path></g><g class="divider neo-line" style=""><path d="M-38.848960876464844 33 C-12.156821307333118 33.0003435373684, 14.535318261798608 33.000687074736796, 38.848960876464844 33.001 M-38.848960876464844 33 C-17.68859291354899 33.000272341492355, 3.4717750493668618 33.0005446829847, 38.848960876464844 33.001" stroke="#28253D" stroke-width="1.3" fill="none" stroke-dasharray="0 0" style=""></path></g></g><g class="node default" id="diagram-1789812988840-l44a9n-classId-e_AISession-185" data-color-id="color-7" data-look="neo" transform="translate(334.58333587646484, 702)"><g class="basic label-container outer-path"><path d="M-53.63541793823242 -51 L53.63541793823242 -51 L53.63541793823242 51 L-53.63541793823242 51" stroke="none" stroke-width="0" fill="#ffffff" style=""></path><path d="M-53.63541793823242 -51 C-30.148374562517546 -51, -6.66133118680267 -51, 53.63541793823242 -51 M-53.63541793823242 -51 C-14.446185377556382 -51, 24.743047183119657 -51, 53.63541793823242 -51 M53.63541793823242 -51 C53.63541793823242 -20.6743025425158, 53.63541793823242 9.6513949149684, 53.63541793823242 51 M53.63541793823242 -51 C53.63541793823242 -13.013205306228151, 53.63541793823242 24.973589387543697, 53.63541793823242 51 M53.63541793823242 51 C20.12118839535139 51, -13.393041147529644 51, -53.63541793823242 51 M53.63541793823242 51 C27.10045049633354 51, 0.5654830544346581 51, -53.63541793823242 51 M-53.63541793823242 51 C-53.63541793823242 24.782002502159337, -53.63541793823242 -1.4359949956813267, -53.63541793823242 -51 M-53.63541793823242 51 C-53.63541793823242 10.34395497846132, -53.63541793823242 -30.31209004307736, -53.63541793823242 -51" stroke="#28253D" stroke-width="1.3" fill="none" stroke-dasharray="0 0" style=""></path></g><g class="annotation-group text" transform="translate(-24.52083396911621, -27)"><g class="label" style="" transform="translate(0,-10.5)"><foreignObject width="49.04166793823242" height="21"><div xmlns="http://www.w3.org/1999/xhtml" style="display: table-cell; white-space: nowrap; line-height: 1.5; max-width: 111px; text-align: center;"><span class="nodeLabel markdown-node-label" style=""><p>«entity»</p></span></div></foreignObject></g></g><g class="label-group text" transform="translate(-41.63541793823242, -6)"><g class="label" style="font-weight: bolder" transform="translate(0,-10.5)"><foreignObject width="83.27083587646484" height="21"><div xmlns="http://www.w3.org/1999/xhtml" style="display: table-cell; white-space: nowrap; line-height: 1.5; max-width: 143px; text-align: center;"><span class="nodeLabel markdown-node-label" style=""><p>e_AISession</p></span></div></foreignObject></g></g><g class="members-group text" transform="translate(-41.63541793823242, 39)"></g><g class="methods-group text" transform="translate(-41.63541793823242, 69)"></g><g class="divider neo-line" style=""><path d="M-53.63541793823242 15 C-17.997798805555405 15.000332220951217, 17.639820327121612 15.000664441902433, 53.63541793823242 15.001 M-53.63541793823242 15 C-16.238678041715822 15.000348619823747, 21.158061854800778 15.000697239647495, 53.63541793823242 15.001" stroke="#28253D" stroke-width="1.3" fill="none" stroke-dasharray="0 0" style=""></path></g><g class="divider neo-line" style=""><path d="M-53.63541793823242 33 C-12.15544577470613 33.0003866845245, 29.32452638882016 33.000773369049, 53.63541793823242 33.001 M-53.63541793823242 33 C-19.35017513542622 33.00031961383094, 14.935067667379982 33.000639227661885, 53.63541793823242 33.001" stroke="#28253D" stroke-width="1.3" fill="none" stroke-dasharray="0 0" style=""></path></g></g><g class="node default" id="diagram-1789812988840-l44a9n-classId-e_Agent-186" data-color-id="color-8" data-look="neo" transform="translate(320.56771087646484, 844)"><g class="basic label-container outer-path"><path d="M-39.61979293823242 -51 L39.61979293823242 -51 L39.61979293823242 51 L-39.61979293823242 51" stroke="none" stroke-width="0" fill="#ffffff" style=""></path><path d="M-39.61979293823242 -51 C-12.638372600006448 -51, 14.343047738219525 -51, 39.61979293823242 -51 M-39.61979293823242 -51 C-15.39293056526586 -51, 8.8339318077007 -51, 39.61979293823242 -51 M39.61979293823242 -51 C39.61979293823242 -23.98425313751407, 39.61979293823242 3.0314937249718596, 39.61979293823242 51 M39.61979293823242 -51 C39.61979293823242 -15.99686530807378, 39.61979293823242 19.00626938385244, 39.61979293823242 51 M39.61979293823242 51 C21.38068301848543 51, 3.1415730987384407 51, -39.61979293823242 51 M39.61979293823242 51 C15.510469474428604 51, -8.598853989375215 51, -39.61979293823242 51 M-39.61979293823242 51 C-39.61979293823242 12.571316805993455, -39.61979293823242 -25.85736638801309, -39.61979293823242 -51 M-39.61979293823242 51 C-39.61979293823242 14.81895369101543, -39.61979293823242 -21.36209261796914, -39.61979293823242 -51" stroke="#28253D" stroke-width="1.3" fill="none" stroke-dasharray="0 0" style=""></path></g><g class="annotation-group text" transform="translate(-24.52083396911621, -27)"><g class="label" style="" transform="translate(0,-10.5)"><foreignObject width="49.04166793823242" height="21"><div xmlns="http://www.w3.org/1999/xhtml" style="display: table-cell; white-space: nowrap; line-height: 1.5; max-width: 111px; text-align: center;"><span class="nodeLabel markdown-node-label" style=""><p>«entity»</p></span></div></foreignObject></g></g><g class="label-group text" transform="translate(-27.619792938232422, -6)"><g class="label" style="font-weight: bolder" transform="translate(0,-10.5)"><foreignObject width="55.239585876464844" height="21"><div xmlns="http://www.w3.org/1999/xhtml" style="display: table-cell; white-space: nowrap; line-height: 1.5; max-width: 115px; text-align: center;"><span class="nodeLabel markdown-node-label" style=""><p>e_Agent</p></span></div></foreignObject></g></g><g class="members-group text" transform="translate(-27.619792938232422, 39)"></g><g class="methods-group text" transform="translate(-27.619792938232422, 69)"></g><g class="divider neo-line" style=""><path d="M-39.61979293823242 15 C-22.543362804576685 15.000215503778128, -5.466932670920947 15.000431007556255, 39.61979293823242 15.001 M-39.61979293823242 15 C-20.239215233216818 15.00024458201656, -0.8586375282012142 15.00048916403312, 39.61979293823242 15.001" stroke="#28253D" stroke-width="1.3" fill="none" stroke-dasharray="0 0" style=""></path></g><g class="divider neo-line" style=""><path d="M-39.61979293823242 33 C-18.726893254926324 33.00026366745172, 2.1660064283797738 33.00052733490344, 39.61979293823242 33.001 M-39.61979293823242 33 C-8.732856993268879 33.000389791738606, 22.154078951694665 33.000779583477204, 39.61979293823242 33.001" stroke="#28253D" stroke-width="1.3" fill="none" stroke-dasharray="0 0" style=""></path></g></g></g></g></g><defs><filter id="diagram-1789812988840-l44a9n-drop-shadow" height="130%" width="130%"><feDropShadow dx="4" dy="4" stdDeviation="0" flood-opacity="0.06" flood-color="#000000"></feDropShadow></filter></defs><defs><filter id="diagram-1789812988840-l44a9n-drop-shadow-small" height="150%" width="150%"><feDropShadow dx="2" dy="2" stdDeviation="0" flood-opacity="0.06" flood-color="#000000"></feDropShadow></filter></defs></svg>